<?xml version="1.0" encoding="UTF-8"?>
<svg width="30px" height="26px" viewBox="0 0 30 26" version="1.1" xmlns="http://www.w3.org/2000/svg" xmlns:xlink="http://www.w3.org/1999/xlink">
    <!-- Generator: Sketch 48.2 (47327) - http://www.bohemiancoding.com/sketch -->
    <title>lightbulb copy 4</title>
    <desc>Created with Sketch.</desc>
    <defs></defs>
    <g id="Oranj-UX-Case-Study" stroke="none" stroke-width="1" fill="none" fill-rule="evenodd" transform="translate(-254.000000, -4991.000000)">
        <g id="lightbulb" transform="translate(254.000000, 4991.000000)">
            <g>
                <g id="tip-(lightbulb)-copy-6" transform="translate(0.310187, 0.000000)" fill="#F8D11C">
                    <path d="M12.5454545,19.1363636 C12.5454545,17.9451105 12.5742021,17.9924831 9.98127262,14.2475834 C8.40193603,11.9665891 7.66738629,10.3872815 7.63626008,8.69327222 C7.56545935,4.84002257 10.7139353,1.95454545 14.6925919,1.95454545 C19.1665131,1.95454545 21.7768518,4.74669523 21.7500141,8.70038018 C21.7471354,9.12446966 21.6864987,9.56912744 21.5702701,10.0380374 C21.2810483,11.2048668 20.7228737,12.3630677 19.6871547,14.122509 C17.6497935,17.5835033 17.4545455,17.9683272 17.4545455,19.1363636 L18.6818182,19.1363636 C18.6818182,18.3116629 18.9098726,17.8621794 20.7447851,14.7450975 C21.8371557,12.8894184 22.4358178,11.6472067 22.7614942,10.3333059 C22.9000443,9.7743426 22.973691,9.23428061 22.9772586,8.70871073 C23.0086099,4.09007524 19.8647767,0.727272727 14.6925919,0.727272727 C10.05474,0.727272727 6.32521377,4.14526385 6.40919447,8.71581868 C6.4460198,10.7199955 7.2644854,12.4797252 8.97225723,14.9462151 C11.2596907,18.249895 11.3181818,18.3462816 11.3181818,19.1363636 L12.5454545,19.1363636 Z" id="Path-12" fill-rule="nonzero"></path>
                    <path d="M18.0681818,19.75 L18.0681818,22.5640053 L15.9730962,24.6590909 L14.0269038,24.6590909 L11.9318182,22.5640053 L11.9318182,19.75 L18.0681818,19.75 Z M19.2954545,18.5227273 L10.7045455,18.5227273 L10.7045455,23.0723583 L13.5185508,25.8863636 L16.4814492,25.8863636 L19.2954545,23.0723583 L19.2954545,18.5227273 Z M11.3181818,23.4318182 L18.6818182,23.4318182 L18.6818182,22.2045455 L11.3181818,22.2045455 L11.3181818,23.4318182 Z" id="Path-13" fill-rule="nonzero"></path>
                    <circle id="Oval-7" cx="26.0454545" cy="16.6818182" r="1.22727273"></circle>
                    <circle id="Oval-7-Copy" cx="28.5" cy="9.31818182" r="1.22727273"></circle>
                    <circle id="Oval-7-Copy-2" cx="26.0454545" cy="3.18181818" r="1.22727273"></circle>
                    <circle id="Oval-7" transform="translate(3.954545, 16.681818) scale(-1, 1) translate(-3.954545, -16.681818) " cx="3.95454545" cy="16.6818182" r="1.22727273"></circle>
                    <circle id="Oval-7-Copy" transform="translate(1.500000, 9.318182) scale(-1, 1) translate(-1.500000, -9.318182) " cx="1.5" cy="9.31818182" r="1.22727273"></circle>
                    <circle id="Oval-7-Copy-2" transform="translate(3.954545, 3.181818) scale(-1, 1) translate(-3.954545, -3.181818) " cx="3.95454545" cy="3.18181818" r="1.22727273"></circle>
                </g>
                <path d="M13.9280136,18.5 C11.9760045,12.4153983 11.8333333,9.48996388 13.5,9.72369679 C16,10.0742962 17.3563836,13.7742983 15.1574716,13.7742983 C12.9585596,13.7742983 14.5,10 17,9.72369679 C18.6666667,9.53949465 18.5,12.4649291 16.5,18.5" id="Path-4" stroke="#F8D11C" stroke-width="0.8" stroke-linecap="round" stroke-linejoin="round"></path>
            </g>
        </g>
    </g>
</svg>