<?xml version="1.0" encoding="UTF-8"?>
<svg width="22px" height="22px" viewBox="0 0 22 22" version="1.1" xmlns="http://www.w3.org/2000/svg" xmlns:xlink="http://www.w3.org/1999/xlink">
    <!-- Generator: Sketch 48.2 (47327) - http://www.bohemiancoding.com/sketch -->
    <title>problem-icon</title>
    <desc>Created with Sketch.</desc>
    <defs></defs>
    <g id="Oranj-UX-Case-Study" stroke="none" stroke-width="1" fill="none" fill-rule="evenodd" transform="translate(-263.000000, -3094.000000)">
        <g id="problem-icon" transform="translate(264.000000, 3095.000000)">
            <g id="Group-9" transform="translate(-1.000000, -1.000000)">
                <path d="M11,22 C4.92486775,22 0,17.0751322 0,11 C0,4.92486775 4.92486775,0 11,0 C17.0751322,0 22,4.92486775 22,11 C22,17.0751322 17.0751322,22 11,22 Z M11,20 C15.9705627,20 20,15.9705627 20,11 C20,6.02943725 15.9705627,2 11,2 C6.02943725,2 2,6.02943725 2,11 C2,15.9705627 6.02943725,20 11,20 Z" id="Oval" fill="#FC1D62" fill-rule="nonzero"></path>
                <path d="M6.75735931,8.17157288 C6.36683502,7.78104858 6.36683502,7.1478836 6.75735931,6.75735931 C7.1478836,6.36683502 7.78104858,6.36683502 8.17157288,6.75735931 L15.2426407,13.8284271 C15.633165,14.2189514 15.633165,14.8521164 15.2426407,15.2426407 C14.8521164,15.633165 14.2189514,15.633165 13.8284271,15.2426407 L6.75735931,8.17157288 Z" id="Line-2" fill="#FC1C61" fill-rule="nonzero" transform="translate(11.000000, 11.000000) scale(-1, 1) translate(-11.000000, -11.000000) "></path>
                <path d="M6.75735931,8.17157288 C6.36683502,7.78104858 6.36683502,7.1478836 6.75735931,6.75735931 C7.1478836,6.36683502 7.78104858,6.36683502 8.17157288,6.75735931 L15.2426407,13.8284271 C15.633165,14.2189514 15.633165,14.8521164 15.2426407,15.2426407 C14.8521164,15.633165 14.2189514,15.633165 13.8284271,15.2426407 L6.75735931,8.17157288 Z" id="Line-2" fill="#FC1C61" fill-rule="nonzero"></path>
            </g>
        </g>
    </g>
</svg>