<?xml version="1.0" encoding="UTF-8"?>
<svg width="31px" height="120px" viewBox="0 0 31 120" version="1.1" xmlns="http://www.w3.org/2000/svg" xmlns:xlink="http://www.w3.org/1999/xlink">
    <!-- Generator: Sketch 48.2 (47327) - http://www.bohemiancoding.com/sketch -->
    <title>vertical-logo</title>
    <desc>Created with Sketch.</desc>
    <defs></defs>
    <g id="homepage" stroke="none" stroke-width="1" fill="none" fill-rule="evenodd">
        <g id="vertical-logo" transform="translate(0.326272, -0.105466)" fill="#FFFFFF">
            <path d="M6.34047207,4.83302005 L7.86380352,0.906210093 C14.3972028,1.68480172 18.6286791,2.53109697 26.1776327,4.56220557 L24.8235603,8.72597819 C19.2380117,6.86412864 12.2983906,5.40850082 6.34047207,4.83302005 Z M5.79884311,14.1422678 L7.35602637,10.2493096 C12.772316,10.9263458 18.1886056,12.145011 24.9928194,14.1761196 L23.6725988,18.3398922 C20.9983058,17.2904861 18.5948273,16.5795981 14.363351,15.6317474 C11.4859472,14.9547112 9.28557953,14.5823413 5.79884311,14.1422678 Z M3.0568465,23.6546264 L4.64788157,19.79552 C12.8400196,20.878778 19.2380117,22.4021094 27.1254834,25.144106 L25.6698556,29.4094341 C22.1492673,27.8522508 19.0349008,26.8705483 13.6863148,25.6180314 C9.5225422,24.6363289 6.74669379,24.1285517 3.0568465,23.6546264 Z" id="ミ"></path>
            <path d="M10.6396519,52.044733 L19.4411225,52.044733 L19.4749743,50.5214015 L19.4749743,49.4381436 C19.4749743,47.2039242 19.4411225,46.4591843 19.3057153,45.6805927 L23.6725988,45.6805927 C23.5710433,46.4591843 23.5371915,46.6284434 23.5371915,47.948664 C23.5371915,50.0136244 23.5371915,50.0136244 23.5033397,52.044733 L25.6698556,52.044733 C28.0733341,52.044733 28.7503703,52.0108812 30.0705908,51.8077703 L30.0705908,55.9376911 C28.8857775,55.8022839 27.9717786,55.7684321 25.7375592,55.7684321 L23.4694879,55.7684321 C23.4017843,59.8306493 23.4017843,60.0676119 23.2325252,61.3539807 C22.7585999,65.6870124 21.3029721,68.5644162 18.3578646,71.0694502 C16.5298669,72.6266334 14.8711282,73.5067805 11.7567617,74.6238902 C11.1135773,73.1682624 10.6735037,72.525078 9.21787591,71.0355984 C12.4337979,70.0538959 14.0586847,69.2414524 15.6835716,67.8196764 C17.9854947,65.8224196 18.9671972,63.5882002 19.2718635,59.695242 C19.3395671,58.9166504 19.3395671,58.104207 19.4072707,55.7684321 L10.6396519,55.7684321 L10.6396519,60.8462036 C10.6396519,62.2679796 10.6735037,62.8096086 10.7750592,63.6897556 L6.37432388,63.6897556 C6.47587931,62.9450158 6.50973112,62.0310169 6.50973112,60.7785 L6.50973112,55.7684321 L4.44477071,55.7684321 C2.21055125,55.7684321 1.29655238,55.8022839 0.111739036,55.9376911 L0.111739036,51.8077703 C1.43195962,52.0108812 2.10899582,52.044733 4.51247433,52.044733 L6.50973112,52.044733 L6.50973112,48.659552 C6.50973112,47.237776 6.47587931,46.526888 6.34047207,45.6467409 L10.7750592,45.6467409 C10.6396519,46.7638506 10.6396519,46.8315543 10.6396519,48.5579966 L10.6396519,52.044733 Z" id="サ"></path>
            <path d="M11.1305032,96.8191156 L10.622726,93.9417118 C10.3180597,92.2829731 10.1826525,91.7074923 9.81028259,90.7596416 L14.2787215,90.0487536 C14.3125733,90.9289007 14.4479806,91.9106032 14.6849432,93.2308238 L15.2265722,96.1759312 L22.3693041,95.0588215 C24.0280428,94.788007 24.7389308,94.618748 25.6190778,94.3140817 L26.3299658,98.3762989 C25.415967,98.4440025 25.415967,98.4440025 23.0801921,98.8163724 L15.9374602,99.9334821 L16.9530145,105.485179 L24.9081898,104.232662 C26.3299658,103.995699 27.5147792,103.724885 28.4287781,103.45407 L29.1735179,107.516288 C28.4626299,107.550139 28.3272226,107.550139 27.6163346,107.685547 C27.4132238,107.685547 27.2439647,107.719398 27.0747057,107.75325 C26.837743,107.787102 26.3976695,107.854806 25.7206333,107.956361 L17.6639025,109.24273 L18.8825677,115.809981 C19.2887894,118.0442 19.3226412,118.145756 19.6950111,119.296717 L15.1588686,120.109161 C15.1250168,119.093607 14.9896095,118.145756 14.718795,116.554721 L13.5001299,109.885914 L5.13873281,111.206135 C3.51384594,111.476949 2.90451336,111.612357 1.6858482,111.950875 L1.008812,107.787102 C2.15977354,107.787102 3.14147603,107.685547 4.59710385,107.448584 L12.8230937,106.128363 L11.8075394,100.576667 L5.51110272,101.558369 C3.95391947,101.829183 2.7014025,102.066146 1.78740363,102.336961 L1.11036743,98.173188 C2.32903259,98.1393362 3.41229051,98.003929 4.83406652,97.8008181 L11.1305032,96.8191156 Z" id="キ"></path>
        </g>
    </g>
</svg>